<?xml version="1.0" encoding="UTF-8"?><svg id="Warstwa_1" xmlns="http://www.w3.org/2000/svg" viewBox="0 0 258.69 69.65"><defs><style>.cls-1{fill:#1d1d1b;}</style></defs><path class="cls-1" d="m118.72,23.46c-7.54,0-13.66,8.99-13.66,20.09s6.12,20.09,13.66,20.09,13.66-8.99,13.66-20.09-6.12-20.09-13.66-20.09Zm0,38.46c-4.96,0-8.99-8.23-8.99-18.37s4.02-18.37,8.99-18.37,8.99,8.23,8.99,18.37-4.02,18.37-8.99,18.37Z"/><ellipse class="cls-1" cx="46.8" cy="15" rx="3.47" ry="3.79"/><path class="cls-1" d="m100.37,61.03v-30.39h0c-.03-6.35-4.68-7.18-6.5-7.18-4.03,0-6.12,5.4-6.55,6.62V7.26h-6.26s0,.37,0,.37c.88,0,1.59,1.05,1.59,2.34h0v50.59c0,1.28-.71,2.31-1.59,2.31v.37h7.84v-.37c-.87,0-1.58-1.04-1.59-2.33v-23.26c.25-3.02,1.26-10.04,5.12-10.04,1.83,0,3.25.87,3.25,7.28h0s0,26.01,0,26.01h-.04c0,1.29-.71,2.34-1.59,2.34v.37h7.84v-.37c-.76,0-1.39-.78-1.55-1.83Z"/><path class="cls-1" d="m49.58,60.52V23.89h-6.26s0,.37,0,.37c.88,0,1.59,1.05,1.59,2.34h0v33.94c0,1.28-.71,2.31-1.59,2.31v.37h7.84v-.37c-.87,0-1.58-1.04-1.59-2.33Z"/><path class="cls-1" d="m69.18,61.06c-8.02,4.28-11.88-9.52-11.73-17.5,0-7.42,2.16-13.82,5.26-16.71,4.71-4.13,9.04-.02,11.18,6.42l2.87-2.87c-10.42-16.09-25.01-1.51-23.96,14.12.15,17.02,16.66,27.95,25.2,9.74l-2.73-2.73c-.92,4.29-3.05,7.75-6.09,9.53Z"/><path class="cls-1" d="m23.5,10.85c5.11,0,7.39,4.61,9.9,10.51l3.98-3.93c-3.45-5.51-8.39-8.96-13.88-8.96-10.41,0-18.86,12.42-18.86,27.73s8.44,27.74,18.86,27.74c5.37,0,10.22-3.31,13.65-8.61l-3.06-3.06c-2.51,5.68-6.32,9.3-10.59,9.3-7.56,0-13.68-11.36-13.68-25.36s6.13-25.36,13.68-25.36Z"/><path class="cls-1" d="m211.37,61.03v-30.39h0c-.03-6.35-4.68-7.18-6.5-7.18-4.03,0-6.12,5.4-6.54,6.62V8.91h-4.26s-2.01,0-2.01,0v.37c.88,0,1.59,1.05,1.59,2.34h0v48.94c0,1.28-.71,2.31-1.59,2.31v.37h7.84v-.37c-.87,0-1.58-1.04-1.59-2.33v-23.26c.25-3.02,1.26-10.04,5.12-10.04,1.83,0,3.25.87,3.25,7.28h0s0,26.01,0,26.01h-.04c0,1.29-.71,2.34-1.59,2.34v.37h7.84v-.37c-.76,0-1.39-.78-1.55-1.83Z"/><path class="cls-1" d="m173.97,10.85c5.11,0,7.39,4.61,9.9,10.51l3.98-3.93c-3.45-5.51-8.39-8.96-13.88-8.96-10.41,0-18.86,12.42-18.86,27.73s8.44,27.74,18.86,27.74c5.37,0,10.22-3.31,13.65-8.61l-3.06-3.06c-2.51,5.68-6.32,9.3-10.59,9.3-7.56,0-13.68-11.36-13.68-25.36s6.13-25.36,13.68-25.36Z"/><path class="cls-1" d="m252.9,55.5c-.75,2.31-2,4.3-4.05,4.3-1.83,0-3.25-.87-3.25-7.28h0s0-26.22,0-26.22h6.03v-1.46h-6.03v-15.99h-4.67v15.99h-1.39l-1.46,1.46h2.85v30.09h0c.03,6.35,4.68,7.18,6.5,7.18,4.55,0,6.63-6.87,6.63-6.87v-.06l-1.15-1.15Z"/><path class="cls-1" d="m236.29,60.53h0v-29.88h0c-.03-6.35-4.68-7.18-6.5-7.18-5.62.36-6.88,8.36-8.01,10.53l1.81.58c.56-3.27,1.84-7.33,4.78-7.33,1.83,0,3.25.87,3.25,7.28h0s0,3.37,0,3.37c-3.02,2.64-8.48,4.91-10.94,5.93h0c-3.56,1.65-5.9,5.29-5.92,9.58-.14,9.22,10.92,14.06,16.86,7.09v2.74h6.26v-.37c-.88,0-1.59-1.05-1.59-2.34Zm-4.67-1.48c-.04.07-.28.29-.34.35h0c-1.52,1.54-3.68,2.43-6,2.52-.35.02-1.1-.02-1.35-.07-5.13-1-5.82-11.82-2.18-15.25.09-.09.66-.6.66-.6l9.2-6.48v19.52Z"/></svg>