<?xml version="1.0" encoding="UTF-8"?><svg id="Warstwa_1" xmlns="http://www.w3.org/2000/svg" viewBox="0 0 552.07 176.19"><defs><style>.cls-1{fill:#fff;}</style></defs><g><path class="cls-1" d="m36.91,162.66h-6.33l-1.05,2.61h-1.44l5.09-12.11h1.14l5.09,12.11h-1.44l-1.05-2.61Zm-5.87-1.16h5.4l-2.7-6.75-2.7,6.75Z"/><path class="cls-1" d="m51.93,156.59c-.81-1.47-2.32-2.46-4.4-2.46-3.01,0-5.09,2.13-5.09,5.09s2.13,5.12,5.09,5.12c2.68,0,4.26-1.57,4.83-3.58h-5.55v-1.14h7.03c-.21,3.24-2.58,5.9-6.3,5.9s-6.47-2.73-6.47-6.3,2.68-6.3,6.47-6.3c2.7,0,4.76,1.35,5.78,3.67h-1.38Z"/><path class="cls-1" d="m61.12,161.43h-2.63v3.84h-1.38v-12.11h4.6c2.59,0,4.33,1.9,4.33,4.12,0,1.92-1.3,3.62-3.3,4.05l3.69,3.95h-1.75l-3.55-3.84Zm.45-1.19c2.01,0,3.1-1.44,3.1-2.96s-1.09-2.92-3.1-2.92h-3.08v5.88h3.08Z"/><path class="cls-1" d="m75.18,152.92c3.72,0,6.44,2.73,6.44,6.3s-2.72,6.3-6.44,6.3-6.44-2.72-6.44-6.3,2.73-6.3,6.44-6.3Zm-5.05,6.3c0,2.82,2.06,5.09,5.05,5.09s5.05-2.27,5.05-5.09-2.04-5.09-5.05-5.09-5.05,2.25-5.05,5.09Z"/><path class="cls-1" d="m92.51,154.35h-3.96v10.92h-1.38v-10.92h-3.96v-1.19h9.31v1.19Z"/><path class="cls-1" d="m105.46,160.7c0,2.79-2.08,4.81-5.04,4.81s-5.04-2.02-5.04-4.81v-7.54h1.38v7.6c0,2.13,1.49,3.55,3.65,3.55s3.65-1.42,3.65-3.55v-7.6h1.38v7.54Z"/><path class="cls-1" d="m113.53,161.43h-2.63v3.84h-1.38v-12.11h4.6c2.59,0,4.33,1.9,4.33,4.12,0,1.92-1.3,3.62-3.3,4.05l3.69,3.95h-1.75l-3.55-3.84Zm.45-1.19c2.01,0,3.1-1.44,3.1-2.96s-1.09-2.92-3.1-2.92h-3.08v5.88h3.08Z"/><path class="cls-1" d="m128.7,153.16h1.49l-4.34,7.48v4.64h-1.38v-4.64l-4.34-7.48h1.49l3.55,6.18,3.55-6.18Z"/><path class="cls-1" d="m133.2,161.93c.26,1.47,1.25,2.46,2.94,2.46s2.77-1.02,2.77-2.32-.85-1.94-2.11-2.3l-1.51-.43c-1.78-.52-3.04-1.45-3.04-3.2,0-1.94,1.63-3.22,3.75-3.22s3.58,1.42,3.74,3.29h-1.26c-.16-1.26-1.06-2.16-2.49-2.16s-2.41.78-2.41,2.06.9,1.71,2.18,2.08l1.44.43c1.89.54,3.05,1.51,3.05,3.37,0,2.08-1.75,3.53-4.12,3.53s-3.93-1.45-4.24-3.58h1.32Z"/><path class="cls-1" d="m151.57,154.35h-3.96v10.92h-1.38v-10.92h-3.96v-1.19h9.31v1.19Z"/><path class="cls-1" d="m162.42,153.16h1.49l-4.34,7.48v4.64h-1.38v-4.64l-4.34-7.48h1.49l3.55,6.18,3.55-6.18Z"/><path class="cls-1" d="m166.65,153.16h1.38v5.83l6.02-5.83h1.66l-6.09,5.95,6.35,6.16h-1.71l-6.23-6.06v6.06h-1.38v-12.11Z"/><path class="cls-1" d="m187.13,162.66h-6.33l-1.05,2.61h-1.44l5.09-12.11h1.14l5.09,12.11h-1.44l-1.05-2.61Zm-5.87-1.16h5.4l-2.7-6.75-2.7,6.75Z"/><path class="cls-1" d="m209.08,163.56l2.87-10.4h1.35l-3.6,12.11h-1.25l-3.43-10.57-3.43,10.57h-1.25l-3.6-12.11h1.35l2.87,10.4,3.41-10.4h1.28l3.41,10.4Z"/><path class="cls-1" d="m221.43,153.16h1.38v5.83l6.02-5.83h1.66l-6.09,5.95,6.35,6.16h-1.71l-6.23-6.06v6.06h-1.38v-12.11Z"/><path class="cls-1" d="m237.59,161.43h-2.63v3.84h-1.38v-12.11h4.6c2.59,0,4.33,1.9,4.33,4.12,0,1.92-1.3,3.62-3.3,4.05l3.69,3.95h-1.75l-3.55-3.84Zm.45-1.19c2.01,0,3.1-1.44,3.1-2.96s-1.09-2.92-3.1-2.92h-3.08v5.88h3.08Z"/><path class="cls-1" d="m254.14,162.66h-6.33l-1.06,2.61h-1.44l5.09-12.11h1.14l5.09,12.11h-1.44l-1.06-2.61Zm-5.87-1.16h5.4l-2.7-6.75-2.7,6.75Z"/><path class="cls-1" d="m259.55,153.16h1.38v12.11h-1.38v-12.11Z"/><path class="cls-1" d="m265.05,153.16h1.07l7.91,9.95v-9.95h1.28v12.11h-1.07l-7.91-9.95v9.95h-1.28v-12.11Z"/><path class="cls-1" d="m279.46,153.16h1.38v12.11h-1.38v-12.11Z"/><path class="cls-1" d="m284.96,153.16h7.65v1.21h-6.26v4.14h6.11v1.21h-6.11v4.34h6.33v1.21h-7.72v-12.11Z"/><path class="cls-1" d="m312.35,163.56l2.87-10.4h1.35l-3.6,12.11h-1.25l-3.43-10.57-3.43,10.57h-1.25l-3.6-12.11h1.35l2.87,10.4,3.41-10.4h1.28l3.41,10.4Z"/><path class="cls-1" d="m327.34,153.16h1.49l-4.34,7.48v4.64h-1.38v-4.64l-4.34-7.48h1.49l3.55,6.18,3.55-6.18Z"/><path class="cls-1" d="m340.95,156.59c-.81-1.47-2.32-2.46-4.39-2.46-3.01,0-5.09,2.13-5.09,5.09s2.13,5.12,5.09,5.12c2.68,0,4.26-1.57,4.83-3.58h-5.55v-1.14h7.02c-.21,3.24-2.58,5.9-6.3,5.9s-6.47-2.73-6.47-6.3,2.68-6.3,6.47-6.3c2.7,0,4.76,1.35,5.78,3.67h-1.38Z"/><path class="cls-1" d="m353.31,162.66h-6.33l-1.06,2.61h-1.44l5.09-12.11h1.14l5.09,12.11h-1.44l-1.06-2.61Zm-5.87-1.16h5.4l-2.7-6.75-2.7,6.75Z"/><path class="cls-1" d="m359.12,161.93c.26,1.47,1.25,2.46,2.94,2.46s2.77-1.02,2.77-2.32-.85-1.94-2.11-2.3l-1.51-.43c-1.78-.52-3.04-1.45-3.04-3.2,0-1.94,1.63-3.22,3.75-3.22s3.58,1.42,3.74,3.29h-1.26c-.16-1.26-1.06-2.16-2.49-2.16s-2.41.78-2.41,2.06.9,1.71,2.18,2.08l1.44.43c1.89.54,3.05,1.51,3.05,3.37,0,2.08-1.75,3.53-4.12,3.53s-3.93-1.45-4.24-3.58h1.31Z"/><path class="cls-1" d="m368.73,160.12l1.23-.78v-6.18h1.38v5.29l2.94-1.87v1.32l-2.94,1.87v4.29h5.97v1.21h-7.35v-4.62l-1.23.78v-1.31Z"/><path class="cls-1" d="m385.99,153.16h1.49l-4.34,7.48v4.64h-1.38v-4.64l-4.34-7.48h1.49l3.55,6.18,3.55-6.18Z"/><path class="cls-1" d="m400.99,156.64h-1.37c-.81-1.49-2.35-2.51-4.45-2.51-2.99,0-5.07,2.21-5.07,5.09s2.08,5.09,5.07,5.09c2.09,0,3.63-1.02,4.45-2.51h1.37c-.88,2.18-3.03,3.72-5.81,3.72-3.74,0-6.45-2.73-6.45-6.3s2.72-6.3,6.45-6.3c2.79,0,4.93,1.54,5.81,3.72Z"/><path class="cls-1" d="m404.28,153.16h1.38v5.36h7.15v-5.36h1.38v12.11h-1.38v-5.47h-7.15v5.47h-1.38v-12.11Z"/><path class="cls-1" d="m434.65,163.56l2.87-10.4h1.35l-3.6,12.11h-1.25l-3.43-10.57-3.43,10.57h-1.25l-3.6-12.11h1.35l2.87,10.4,3.41-10.4h1.28l3.41,10.4Z"/><path class="cls-1" d="m451.75,160.7c0,2.79-2.08,4.81-5.04,4.81s-5.04-2.02-5.04-4.81v-7.54h1.38v7.6c0,2.13,1.49,3.55,3.65,3.55s3.65-1.42,3.65-3.55v-7.6h1.38v7.54Z"/><path class="cls-1" d="m455.8,153.16h1.38v10.9h5.97v1.21h-7.35v-12.11Z"/><path class="cls-1" d="m466.08,153.16h1.38v5.83l6.02-5.83h1.66l-6.09,5.95,6.35,6.16h-1.71l-6.23-6.06v6.06h-1.38v-12.11Z"/><path class="cls-1" d="m486.57,162.66h-6.33l-1.06,2.61h-1.44l5.09-12.11h1.14l5.09,12.11h-1.44l-1.06-2.61Zm-5.87-1.16h5.4l-2.7-6.75-2.7,6.75Z"/><path class="cls-1" d="m491.95,153.16h1.07l7.91,9.95v-9.95h1.28v12.11h-1.07l-7.91-9.95v9.95h-1.28v-12.11Z"/><path class="cls-1" d="m512.06,152.92c3.72,0,6.44,2.73,6.44,6.3s-2.72,6.3-6.44,6.3-6.44-2.72-6.44-6.3,2.73-6.3,6.44-6.3Zm-5.05,6.3c0,2.82,2.06,5.09,5.05,5.09s5.05-2.27,5.05-5.09-2.04-5.09-5.05-5.09-5.05,2.25-5.05,5.09Zm5.59-7.06h-1.28l1.38-2.11h1.73l-1.83,2.11Z"/><path class="cls-1" d="m532.7,163.56l2.87-10.4h1.35l-3.6,12.11h-1.25l-3.43-10.57-3.43,10.57h-1.25l-3.6-12.11h1.35l2.87,10.4,3.41-10.4h1.28l3.41,10.4Z"/></g><g><path class="cls-1" d="m259.72,48.92c-15.43,0-27.94,18.4-27.94,41.09s12.51,41.09,27.94,41.09,27.94-18.4,27.94-41.09-12.51-41.09-27.94-41.09Zm0,78.67c-10.15,0-18.39-16.83-18.39-37.58s8.23-37.58,18.39-37.58,18.39,16.83,18.39,37.58-8.23,37.58-18.39,37.58Z"/><ellipse class="cls-1" cx="109.99" cy="35.41" rx="7.1" ry="7.74"/><path class="cls-1" d="m222.18,125.76v-62.15h0c-.07-12.99-9.57-14.69-13.29-14.69-8.25,0-12.52,11.04-13.39,13.55V15.77h-8.7s-4.1,0-4.1,0v.76c1.79,0,3.25,2.14,3.25,4.78h0v103.47c-.02,2.62-1.46,4.73-3.24,4.73v.76h3.24s9.55,0,9.55,0h0s3.25,0,3.25,0v-.76c-1.79,0-3.24-2.13-3.25-4.76v-47.57c.52-6.18,2.57-20.53,10.47-20.53,3.74,0,6.65,1.77,6.65,14.88h0s0,53.2,0,53.2h-.08c0,2.64-1.45,4.78-3.25,4.78v.76h3.32s9.55,0,9.55,0h0s3.17,0,3.17,0v-.76c-1.55,0-2.85-1.6-3.17-3.74Z"/><path class="cls-1" d="m449.22,125.76v-62.15h0c-.07-12.99-9.57-14.69-13.29-14.69-8.25,0-12.52,11.04-13.39,13.55V19.14h-8.7s-4.1,0-4.1,0v.76c1.79,0,3.25,2.14,3.25,4.78h0v100.1c-.02,2.61-1.46,4.73-3.24,4.73v.76h3.24s9.55,0,9.55,0h0s3.25,0,3.25,0v-.76c-1.79,0-3.24-2.13-3.25-4.76v-47.57c.52-6.18,2.57-20.53,10.47-20.53,3.74,0,6.65,1.77,6.65,14.88h0s0,53.2,0,53.2h-.08c0,2.64-1.45,4.78-3.25,4.78v.76h3.32s9.55,0,9.55,0h0s3.17,0,3.17,0v-.76c-1.55,0-2.85-1.6-3.17-3.74Z"/><path class="cls-1" d="m500.24,125.76v-62.15h0c-.07-12.99-9.57-14.69-13.29-14.69-9.31,0-13.56,14.06-13.56,14.06l-2.84,7.47,3.7,1.19c1.14-6.69,3.77-14.99,9.78-14.99,3.74,0,6.65,1.77,6.65,14.88h0s0,0,0,0c0,0,0,0,0,0-.45.94-1.34,2.06-2.52,3.29-.06.05-.11.11-.16.17-6.65,6.83-21.95,16.77-21.95,16.77v.02c-5.88,3.7-9.84,10.55-9.84,18.39,0,11.77,8.92,21.31,19.92,21.31,5.76,0,10.94-2.62,14.57-6.8v.06c0,2.64-1.45,4.77-3.25,4.77v.76h3.25s9.55,0,9.55,0h0s3.17,0,3.17,0v-.76c-1.55,0-2.85-1.6-3.17-3.74Zm-22.1,1.77s-2.27,0-2.49,0-.95-.13-1.41-.27c-4.83-1.45-8.5-8.38-8.5-16.72,0-6.01,1.91-11.27,4.77-14.29.19-.18.63-.57,1.26-1.14,1.45-1.32,3.9-3.57,6.6-6.1,4.61-4.33,9.93-9.52,12.31-12.47v45.18l-.15.19-.55.52h0c-3.03,3.01-7.21,4.93-11.85,5.11Z"/><path class="cls-1" d="m116.02,124.7V49.78h-8.7s-4.1,0-4.1,0v.76c1.79,0,3.25,2.14,3.25,4.78h0v69.42c-.02,2.61-1.46,4.73-3.24,4.73v.76h16.04v-.76c-1.79,0-3.24-2.13-3.25-4.76Z"/><path class="cls-1" d="m158.39,125.81c-.84.49-1.71.92-2.62,1.29-.97.32-1.96.5-2.98.5-3.28,0-6.35-1.76-9.02-4.83-5.59-6.45-9.37-18.69-9.37-32.75,0-15.19,4.41-28.26,10.75-34.19,1.87-1.75,3.92-2.88,6.07-3.25.52-.09,1.04-.15,1.57-.15,6.34,0,11.93,6.56,15.23,16.53l5.87-5.87c-5.12-8.68-12.67-14.18-21.1-14.18-2.14,0-4.22.37-6.22,1.03-2.03.68-3.97,1.67-5.8,2.96-9.41,6.61-15.92,20.74-15.92,37.1,0,.66.01,1.32.03,1.97.49,15.37,6.73,28.52,15.61,34.94,3.71,2.68,7.88,4.19,12.29,4.19,9.96,0,18.69-7.67,23.64-19.21l-5.58-5.58c-1.89,8.77-6.24,15.84-12.46,19.49Z"/><path class="cls-1" d="m66.34,23.12c10.44,0,15.12,9.43,20.24,21.51l8.14-8.03c-7.05-11.26-17.15-18.32-28.38-18.32-21.3,0-38.57,25.4-38.57,56.73s17.27,56.73,38.57,56.73c10.99,0,20.9-6.77,27.92-17.62l-6.26-6.26c-5.13,11.61-12.93,19.03-21.66,19.03-15.46,0-27.99-23.23-27.99-51.88s12.53-51.88,27.99-51.88Z"/><path class="cls-1" d="m372.73,23.12c10.44,0,15.12,9.43,20.24,21.51l8.14-8.03c-7.05-11.26-17.15-18.32-28.38-18.32-21.3,0-38.57,25.4-38.57,56.73s17.27,56.73,38.57,56.73c10.99,0,20.9-6.77,27.92-17.62l-6.26-6.26c-5.13,11.61-12.93,19.03-21.66,19.03-15.46,0-27.99-23.23-27.99-51.88s12.53-51.88,27.99-51.88Z"/><path class="cls-1" d="m534.16,114.44c-1.54,4.73-4.09,8.8-8.29,8.8-3.74,0-6.65-1.77-6.65-14.88h0s0-53.62,0-53.62h12.33v-2.99h-12.33V19.04h-9.55v32.7h-2.84l-2.99,2.99h5.84v61.54h0c.07,12.99,9.57,14.69,13.29,14.69,9.31,0,13.56-14.06,13.56-14.06v-.12l-2.35-2.35Z"/></g></svg>